<?xml version="1.0" standalone="no"?>
<!DOCTYPE svg PUBLIC "-//W3C//DTD SVG 20010904//EN"
 "http://www.w3.org/TR/2001/REC-SVG-20010904/DTD/svg10.dtd">
<svg version="1.0" xmlns="http://www.w3.org/2000/svg"
 width="820.000000pt" height="513.000000pt" viewBox="0 0 820.000000 513.000000"
 preserveAspectRatio="xMidYMid meet">

<g transform="translate(0.000000,513.000000) scale(0.100000,-0.100000)"
fill="#000000" stroke="none">
<path d="M3505 4585 c-382 -61 -741 -240 -1000 -500 -253 -253 -418 -566 -497
-944 -30 -141 -33 -484 -5 -628 118 -617 513 -1112 1071 -1342 263 -108 410
-136 706 -135 193 0 228 3 341 27 213 45 404 121 587 235 l73 45 457 -455
c303 -302 472 -464 502 -479 37 -20 60 -24 135 -24 75 0 98 4 140 24 165 82
235 276 156 434 -26 54 -92 123 -479 511 l-450 449 56 91 c191 314 272 650
250 1046 -27 500 -298 1003 -700 1301 -237 175 -503 289 -796 339 -134 23
-416 26 -547 5z m465 -649 c104 -19 251 -70 335 -116 246 -136 459 -387 538
-635 49 -151 60 -233 54 -404 -5 -175 -30 -294 -88 -425 -105 -233 -331 -462
-562 -572 -350 -164 -791 -131 -1104 83 -158 108 -293 255 -380 415 -95 173
-128 311 -128 533 0 168 9 225 52 360 88 273 310 528 572 659 101 51 161 71
279 96 106 23 323 25 432 6z"/>
</g>
</svg>
